<svg width="63" height="63" viewBox="0 0 63 63" fill="none" xmlns="http://www.w3.org/2000/svg">
<g clip-path="url(#clip0_1_5090)">
<path d="M17.87 0C18.4548 0 19.0156 0.232312 19.4291 0.64583C19.8426 1.05935 20.075 1.6202 20.075 2.205V6.32835H43.7535V2.23335C43.7535 1.64855 43.9858 1.0877 44.3993 0.67418C44.8128 0.260662 45.3737 0.02835 45.9585 0.02835C46.5433 0.02835 47.1042 0.260662 47.5177 0.67418C47.9312 1.0877 48.1635 1.64855 48.1635 2.23335V6.32835H56.7C58.3703 6.32835 59.9723 6.99167 61.1537 8.17246C62.3351 9.35326 62.9992 10.9549 63 12.6252V56.7031C62.9992 58.3735 62.3351 59.9751 61.1537 61.1559C59.9723 62.3367 58.3703 63 56.7 63H6.3C4.62968 63 3.02773 62.3367 1.84634 61.1559C0.664952 59.9751 0.000835159 58.3735 0 56.7031L0 12.6252C0.000835159 10.9549 0.664952 9.35326 1.84634 8.17246C3.02773 6.99167 4.62968 6.32835 6.3 6.32835H15.665V2.20185C15.6658 1.61759 15.8985 1.05755 16.3119 0.644715C16.7253 0.231879 17.2857 -5.9618e-07 17.87 0ZM4.41 24.3873V56.7031C4.41 56.9513 4.45889 57.1971 4.55387 57.4264C4.64885 57.6557 4.78807 57.8641 4.96357 58.0396C5.13907 58.2151 5.34742 58.3543 5.57673 58.4493C5.80603 58.5443 6.0518 58.5932 6.3 58.5932H56.7C56.9482 58.5932 57.194 58.5443 57.4233 58.4493C57.6526 58.3543 57.8609 58.2151 58.0364 58.0396C58.2119 57.8641 58.3512 57.6557 58.4461 57.4264C58.5411 57.1971 58.59 56.9513 58.59 56.7031V24.4314L4.41 24.3873ZM21.0011 46.0499V51.2978H15.75V46.0499H21.0011ZM34.124 46.0499V51.2978H28.8761V46.0499H34.124ZM47.25 46.0499V51.2978H41.999V46.0499H47.25ZM21.0011 33.5223V38.7702H15.75V33.5223H21.0011ZM34.124 33.5223V38.7702H28.8761V33.5223H34.124ZM47.25 33.5223V38.7702H41.999V33.5223H47.25ZM15.665 10.7352H6.3C6.0518 10.7352 5.80603 10.7841 5.57673 10.8791C5.34742 10.974 5.13907 11.1133 4.96357 11.2888C4.78807 11.4643 4.64885 11.6726 4.55387 11.9019C4.45889 12.1312 4.41 12.377 4.41 12.6252V19.9805L58.59 20.0246V12.6252C58.59 12.377 58.5411 12.1312 58.4461 11.9019C58.3512 11.6726 58.2119 11.4643 58.0364 11.2888C57.8609 11.1133 57.6526 10.974 57.4233 10.8791C57.194 10.7841 56.9482 10.7352 56.7 10.7352H48.1635V13.6616C48.1635 14.2464 47.9312 14.8072 47.5177 15.2207C47.1042 15.6342 46.5433 15.8666 45.9585 15.8666C45.3737 15.8666 44.8128 15.6342 44.3993 15.2207C43.9858 14.8072 43.7535 14.2464 43.7535 13.6616V10.7352H20.075V13.6332C20.075 14.218 19.8426 14.7789 19.4291 15.1924C19.0156 15.6059 18.4548 15.8382 17.87 15.8382C17.2851 15.8382 16.7243 15.6059 16.3108 15.1924C15.8973 14.7789 15.665 14.218 15.665 13.6332V10.7352Z" fill="white"/>
</g>
<defs>
<clipPath id="clip0_1_5090">
<rect width="63" height="63" fill="white"/>
</clipPath>
</defs>
</svg>
