<svg width="76" height="76" viewBox="0 0 76 76" fill="none" xmlns="http://www.w3.org/2000/svg">
<g clip-path="url(#clip0_1_5092)">
<path d="M38 6.33337C55.4895 6.33337 69.6667 20.5105 69.6667 38C69.6667 55.4895 55.4895 69.6667 38 69.6667C20.5105 69.6667 6.33334 55.4895 6.33334 38C6.33334 20.5105 20.5105 6.33337 38 6.33337ZM38 12.6667C31.2812 12.6667 24.8376 15.3357 20.0866 20.0867C15.3357 24.8376 12.6667 31.2812 12.6667 38C12.6667 44.7189 15.3357 51.1625 20.0866 55.9134C24.8376 60.6643 31.2812 63.3334 38 63.3334C44.7188 63.3334 51.1625 60.6643 55.9134 55.9134C60.6643 51.1625 63.3333 44.7189 63.3333 38C63.3333 31.2812 60.6643 24.8376 55.9134 20.0867C51.1625 15.3357 44.7188 12.6667 38 12.6667ZM38 19C38.7756 19.0001 39.5242 19.2849 40.1038 19.8003C40.6835 20.3157 41.0538 21.0259 41.1445 21.7962L41.1667 22.1667V36.689L49.7388 45.2612C50.3068 45.8311 50.6365 46.5958 50.6611 47.3999C50.6856 48.2041 50.4032 48.9875 49.8711 49.5909C49.3389 50.1944 48.5971 50.5727 47.7962 50.649C46.9952 50.7253 46.1953 50.4938 45.5588 50.0017L45.2612 49.7389L35.7612 40.2389C35.269 39.7463 34.9529 39.1052 34.8618 38.4149L34.8333 38V22.1667C34.8333 21.3269 35.167 20.5214 35.7608 19.9275C36.3547 19.3337 37.1602 19 38 19Z" fill="white"/>
</g>
<defs>
<clipPath id="clip0_1_5092">
<rect width="76" height="76" fill="white"/>
</clipPath>
</defs>
</svg>
