<svg width="50" height="50" viewBox="0 0 50 50" fill="none" xmlns="http://www.w3.org/2000/svg">
<path d="M14.2031 20.9813L12.8438 25H9.375L15.1937 9.375H19.2062L25 25H21.3531L19.9937 20.9813H14.2031ZM19.3094 18.6813L17.1875 12.3625H17.0344L14.9125 18.6813H19.3094Z" fill="white"/>
<path d="M0 6.25C0 4.5924 0.65848 3.00269 1.83058 1.83058C3.00269 0.65848 4.5924 0 6.25 0L28.125 0C29.7826 0 31.3723 0.65848 32.5444 1.83058C33.7165 3.00269 34.375 4.5924 34.375 6.25V15.625H43.75C45.4076 15.625 46.9973 16.2835 48.1694 17.4556C49.3415 18.6277 50 20.2174 50 21.875V43.75C50 45.4076 49.3415 46.9973 48.1694 48.1694C46.9973 49.3415 45.4076 50 43.75 50H21.875C20.2174 50 18.6277 49.3415 17.4556 48.1694C16.2835 46.9973 15.625 45.4076 15.625 43.75V34.375H6.25C4.5924 34.375 3.00269 33.7165 1.83058 32.5444C0.65848 31.3723 0 29.7826 0 28.125V6.25ZM6.25 3.125C5.4212 3.125 4.62634 3.45424 4.04029 4.04029C3.45424 4.62634 3.125 5.4212 3.125 6.25V28.125C3.125 28.9538 3.45424 29.7487 4.04029 30.3347C4.62634 30.9208 5.4212 31.25 6.25 31.25H28.125C28.9538 31.25 29.7487 30.9208 30.3347 30.3347C30.9208 29.7487 31.25 28.9538 31.25 28.125V6.25C31.25 5.4212 30.9208 4.62634 30.3347 4.04029C29.7487 3.45424 28.9538 3.125 28.125 3.125H6.25ZM28.5562 34.3594C29.1583 35.299 29.8146 36.1802 30.525 37.0031C28.1875 38.8 25.2969 40.1313 21.875 41.0406C22.4313 41.7188 23.2844 43.025 23.6094 43.75C27.125 42.6281 30.1094 41.1125 32.6281 39.0812C35.0562 41.1594 38.0625 42.7219 41.7844 43.6812C42.2 42.8875 43.0781 41.5781 43.75 40.9C40.2344 40.1094 37.3219 38.7312 34.9375 36.8875C37.0656 34.5531 38.7562 31.7281 40.0031 28.2719H43.75V25H34.375V28.2719H36.7656C35.7719 30.9094 34.4531 33.1031 32.7906 34.9281C32.3311 34.4392 31.8982 33.926 31.4938 33.3906C30.6112 33.9546 29.6011 34.2877 28.5562 34.3594Z" fill="white"/>
</svg>
