<svg width="83" height="83" viewBox="0 0 83 83" fill="none" xmlns="http://www.w3.org/2000/svg">
<path d="M41.5 6.91663C28.1162 6.91663 17.2917 17.7412 17.2917 31.125C17.2917 49.2812 41.5 76.0833 41.5 76.0833C41.5 76.0833 65.7083 49.2812 65.7083 31.125C65.7083 17.7412 54.8837 6.91663 41.5 6.91663ZM41.5 39.7708C39.207 39.7708 37.0079 38.8599 35.3865 37.2385C33.7651 35.6171 32.8542 33.418 32.8542 31.125C32.8542 28.8319 33.7651 26.6328 35.3865 25.0114C37.0079 23.39 39.207 22.4791 41.5 22.4791C43.793 22.4791 45.9921 23.39 47.6135 25.0114C49.2349 26.6328 50.1458 28.8319 50.1458 31.125C50.1458 33.418 49.2349 35.6171 47.6135 37.2385C45.9921 38.8599 43.793 39.7708 41.5 39.7708Z" fill="white"/>
</svg>
